<?xml version="1.0" encoding="utf-8"?>
<!-- Generator: Adobe Illustrator 27.7.0, SVG Export Plug-In . SVG Version: 6.00 Build 0)  -->
<svg version="1.1" id="Camada_1" xmlns="http://www.w3.org/2000/svg" xmlns:xlink="http://www.w3.org/1999/xlink" x="0px" y="0px"
	 viewBox="0 0 512 512" style="enable-background:new 0 0 512 512;" xml:space="preserve">
<style type="text/css">
	.st0{fill:url(#SVGID_1_);}
	.st1{fill:url(#SVGID_00000172432765030187927710000011055845057539227793_);}
	.st2{fill:#1183C5;}
	.st3{fill:#FFFFFF;}
	.st4{fill:none;}
</style>
<g id="Arte_1_00000029040070817376374310000003233292174050000779_">
	<g>
		<g>
			<g>
				<g>
					<g>
						<g>
							<g>
								<g>
									<g>
										<g>
											<g>
												<g>
													
														<linearGradient id="SVGID_1_" gradientUnits="userSpaceOnUse" x1="328.4839" y1="108.9232" x2="36.9826" y2="400.4244" gradientTransform="matrix(1 0 0 -1 0 513.4645)">
														<stop  offset="0" style="stop-color:#211B3E"/>
														<stop  offset="1" style="stop-color:#27348B"/>
													</linearGradient>
													<path class="st0" d="M102.7,269.4c-2.1-44.2,14.9-89.7,45.5-121.7c23.3-24.5,52.7-39.6,85.9-44.2
														c11.9-1.6,22.5,7.6,22.5,19.7v37.3c32.4,0.3,63.9,17,81.5,46.8c8.5,14.3,12.8,29.9,13.3,45.5c0.1-2.5,0-5.1,0-7.6
														c-2-43.3-29.4-102-79.3-169.9C251,46.4,229.8,21.5,213.6,3.6c-30.2,5-60,15.7-88.1,32.2C4,107.9-36.2,264.8,35.7,386.4
														c41.7,70.5,112.1,113.7,187.5,123.5c-8-9.8-16.4-20.4-24.9-31.9C137.5,396.9,105.3,326.8,102.7,269.4"/>
												</g>
											</g>
										</g>
										<g>
											<g>
												<g>
													
														<linearGradient id="SVGID_00000052097475361586352480000003524602695962938808_" gradientUnits="userSpaceOnUse" x1="475.3206" y1="114.2656" x2="184.2695" y2="405.3166" gradientTransform="matrix(1 0 0 -1 0 513.4645)">
														<stop  offset="0" style="stop-color:#211B3E"/>
														<stop  offset="1" style="stop-color:#27348B"/>
													</linearGradient>
													<path style="fill:url(#SVGID_00000052097475361586352480000003524602695962938808_);" d="M476.3,126
														C434.7,55.7,364.8,12.6,289.8,2.6c7.9,9.6,16.2,20.3,24.7,31.4c60.7,81.1,92.9,151.3,95.6,208.6
														c2.1,44.2-14.9,89.7-45.5,121.7c-23.3,24.5-52.7,39.6-85.9,44.2c-11.9,1.6-22.5-7.6-22.5-19.7V352
														c-32.6,0-64.4-16.8-82.2-46.8c-6.5-11.1-10.6-23-12.4-35.1C164.7,313,192,370.6,240.7,437
														c21.2,28.9,42.5,53.8,58.6,71.9c29.9-5.1,59.5-15.7,87.2-32.1C508,404.4,548.2,247.5,476.3,126"/>
												</g>
											</g>
										</g>
										<g>
											<g>
												<g>
													<path class="st2" d="M351.4,253c-0.5-15.5-4.8-31.2-13.3-45.5c-17.7-29.9-49.2-46.6-81.5-46.8
														c-6.9,0-13.9,0.6-20.8,2.1c-4.8,1-9.5,2.5-14.2,4.3c-4.9,1.9-9.8,4.1-14.4,7c-34.3,20.3-51.2,58.6-46,95.8
														c1.8,12,5.8,23.9,12.4,35.1c17.8,30.2,49.6,46.8,82.2,46.8c16.5,0,33.3-4.3,48.7-13.3C335.6,320,352.6,286.7,351.4,253
														 M222.5,276c-10.9-18.4-4.8-42.2,13.7-53.1c18.4-10.9,42.2-4.8,53.1,13.6c10.9,18.4,4.8,42.2-13.7,53.1
														C257.2,300.5,233.4,294.4,222.5,276"/>
												</g>
											</g>
										</g>
										<g>
											<g>
												<g>
													<path class="st3" d="M289.3,236.4c-10.9-18.4-34.7-24.5-53.1-13.6c-18.4,10.9-24.5,34.7-13.7,53.1
														c10.9,18.4,34.7,24.5,53.1,13.6C294.2,278.6,300.2,254.9,289.3,236.4"/>
												</g>
											</g>
										</g>
										<g>
											<g>
												<g>
													<path class="st3" d="M351.4,245.3c0.1,2.5,0.1,5.1,0,7.6c1.1,33.7-15.8,67-46.8,85.4c-15.3,9-32.1,13.3-48.6,13.3v36.9
														c0,12,10.6,21.4,22.5,19.7c33.2-4.6,62.6-19.7,85.9-44.2c30.6-31.9,47.5-77.5,45.5-121.7
														c-2.8-57.3-34.8-127.5-95.6-208.6c-8.4-11.3-16.8-21.8-24.5-31.4l0,0c-11-1.5-22.3-2.3-33.7-2.3
														c-14.4,0-28.6,1.3-42.2,3.5c16.2,17.9,37.3,42.8,58.5,71.6C322,143.4,349.4,202.1,351.4,245.3"/>
												</g>
											</g>
										</g>
										<g>
											<g>
												<g>
													<path class="st3" d="M161.4,269.7c-5.3-37.2,11.6-75.5,46-95.8c4.6-2.8,9.5-5.1,14.4-7c4.5-1.8,9.3-3.3,14.2-4.3
														c6.9-1.5,13.9-2.1,20.8-2.1v-37.3c0-12-10.6-21.4-22.5-19.7c-33.2,4.6-62.6,19.7-85.9,44.1
														c-30.6,32.1-47.6,77.5-45.5,121.7c2.8,57.3,34.8,127.5,95.6,208.6c8.5,11.4,16.9,22,24.9,31.9l0,0
														c10.8,1.4,21.7,2,32.7,2c14.7,0,29.1-1.3,43.1-3.6c-16.2-17.9-37.3-42.9-58.6-71.7
														C191.7,370.4,164.6,312.6,161.4,269.7"/>
												</g>
											</g>
										</g>
										<g>
											<g>
												<g>
													<g>
														<g>
															<g>
																<g>
																	<g>
																		<g>
																			<g>
																				<g>
																					<g>
																						<defs>
																							<path id="SVGID_00000049900438782866330300000005064014141576061598_" d="M253.9,0.2
																								c-43.7,0.4-87.8,11.9-128.1,35.7C4,107.9-36.2,264.8,35.7,386.4C83.4,467,168.4,511.9,255.7,512h1
																								c44.1-0.1,88.8-11.6,129.6-35.7c80-47.3,124.9-131.3,125.6-218v-4.9c-0.4-43.4-11.9-87.4-35.7-127.6
																								C428.8,45.7,344.5,0.9,257.7,0.2C257.7,0.2,253.9,0.2,253.9,0.2z"/>
																						</defs>
																						<clipPath id="SVGID_00000134956110000852027400000002572786051629023369_">
																							<use xlink:href="#SVGID_00000049900438782866330300000005064014141576061598_"  style="overflow:visible;"/>
																						</clipPath>
																					</g>
																				</g>
																			</g>
																		</g>
																	</g>
																</g>
															</g>
														</g>
													</g>
												</g>
											</g>
										</g>
									</g>
								</g>
							</g>
						</g>
					</g>
				</g>
			</g>
		</g>
	</g>
</g>
<path class="st4" d="M176.8,235.6c-3.5,0-7,0.9-10.2,2.9c-9.7,5.8-12.9,18.3-7.2,28c3.8,6.4,10.6,10,17.6,10h0.1
	c3.5,0,7.1-0.9,10.4-2.9c6.4-3.8,10-10.5,10-17.4v-0.4c0-3.5-1-7-2.9-10.2c-3.8-6.4-10.5-10-17.4-10
	C177.1,235.6,176.8,235.6,176.8,235.6z"/>
<path class="st4" d="M176.8,235.6c-3.5,0-7,0.9-10.2,2.9c-9.7,5.8-12.9,18.3-7.2,28c3.8,6.4,10.6,10,17.6,10h0.1
	c3.5,0,7.1-0.9,10.4-2.9c6.4-3.8,10-10.5,10-17.4v-0.4c0-3.5-1-7-2.9-10.2c-3.8-6.4-10.5-10-17.4-10
	C177.1,235.6,176.8,235.6,176.8,235.6z"/>
<path class="st4" d="M176.8,235.6c-3.5,0-7,0.9-10.2,2.9c-9.7,5.8-12.9,18.3-7.2,28c3.8,6.4,10.6,10,17.6,10h0.1
	c3.5,0,7.1-0.9,10.4-2.9c6.4-3.8,10-10.5,10-17.4v-0.4c0-3.5-1-7-2.9-10.2c-3.8-6.4-10.5-10-17.4-10
	C177.1,235.6,176.8,235.6,176.8,235.6z"/>
<path class="st4" d="M176.8,235.6c-3.5,0-7,0.9-10.2,2.9c-9.7,5.8-12.9,18.3-7.2,28c3.8,6.4,10.6,10,17.6,10h0.1
	c3.5,0,7.1-0.9,10.4-2.9c6.4-3.8,10-10.5,10-17.4v-0.4c0-3.5-1-7-2.9-10.2c-3.8-6.4-10.5-10-17.4-10
	C177.1,235.6,176.8,235.6,176.8,235.6z"/>
<path class="st4" d="M176.8,235.6c-3.5,0-7,0.9-10.2,2.9c-9.7,5.8-12.9,18.3-7.2,28c3.8,6.4,10.6,10,17.6,10h0.1
	c3.5,0,7.1-0.9,10.4-2.9c6.4-3.8,10-10.5,10-17.4v-0.4c0-3.5-1-7-2.9-10.2c-3.8-6.4-10.5-10-17.4-10
	C177.1,235.6,176.8,235.6,176.8,235.6z"/>
<path class="st4" d="M176.8,235.6c-3.5,0-7,0.9-10.2,2.9c-9.7,5.8-12.9,18.3-7.2,28c3.8,6.4,10.6,10,17.6,10h0.1
	c3.5,0,7.1-0.9,10.4-2.9c6.4-3.8,10-10.5,10-17.4v-0.4c0-3.5-1-7-2.9-10.2c-3.8-6.4-10.5-10-17.4-10
	C177.1,235.6,176.8,235.6,176.8,235.6z"/>
<path class="st4" d="M176.8,235.6c-3.5,0-7,0.9-10.2,2.9c-9.7,5.8-12.9,18.3-7.2,28c3.8,6.4,10.6,10,17.6,10h0.1
	c3.5,0,7.1-0.9,10.4-2.9c6.4-3.8,10-10.5,10-17.4v-0.4c0-3.5-1-7-2.9-10.2c-3.8-6.4-10.5-10-17.4-10
	C177.1,235.6,176.8,235.6,176.8,235.6z"/>
<path class="st4" d="M176.8,235.6c-3.5,0-7,0.9-10.2,2.9c-9.7,5.8-12.9,18.3-7.2,28c3.8,6.4,10.6,10,17.6,10h0.1
	c3.5,0,7.1-0.9,10.4-2.9c6.4-3.8,10-10.5,10-17.4v-0.4c0-3.5-1-7-2.9-10.2c-3.8-6.4-10.5-10-17.4-10
	C177.1,235.6,176.8,235.6,176.8,235.6z"/>
</svg>
