<?xml version="1.0" encoding="utf-8"?>
<!-- Generator: Adobe Illustrator 27.6.1, SVG Export Plug-In . SVG Version: 6.00 Build 0)  -->
<svg version="1.1" id="Camada_1" xmlns="http://www.w3.org/2000/svg" xmlns:xlink="http://www.w3.org/1999/xlink" x="0px" y="0px"
	 viewBox="0 0 200 42" style="enable-background:new 0 0 200 42;" xml:space="preserve">
<style type="text/css">
	.st0{clip-path:url(#SVGID_00000098899163379332392130000009838237746843299749_);}
	.st1{clip-path:url(#SVGID_00000002351594571095588450000007531102574207149475_);}
	
		.st2{clip-path:url(#SVGID_00000044897081969905860770000001888842584136144263_);fill:url(#SVGID_00000017506120578688299390000018294228867246844816_);}
	
		.st3{clip-path:url(#SVGID_00000000912624571689148350000007795909628552545418_);fill:url(#SVGID_00000174559798265108426580000002483768430625187497_);}
	.st4{clip-path:url(#SVGID_00000164504910336482650890000003931718565804177280_);fill:#1183C5;}
	.st5{clip-path:url(#SVGID_00000169552415896587366970000007778609033708156055_);fill:#FFFFFF;}
	.st6{clip-path:url(#SVGID_00000150079798234554776780000010678907036899103900_);fill:#FFFFFF;}
	.st7{clip-path:url(#SVGID_00000138543563488523098150000000366952576545482927_);fill:#FFFFFF;}
	.st8{clip-path:url(#SVGID_00000155107781609059617810000011494331967057245581_);}
	.st9{clip-path:url(#SVGID_00000029742544895916512130000006383909053570779833_);}
	.st10{filter:url(#Adobe_OpacityMaskFilter);}
	.st11{clip-path:url(#SVGID_00000039827138606995210870000014924264228282407321_);}
	.st12{clip-path:url(#SVGID_00000077290555078918781750000015035167561720330892_);}
	.st13{clip-path:url(#SVGID_00000008834456634046215430000017330995009462886575_);}
	.st14{enable-background:new    ;}
	.st15{clip-path:url(#SVGID_00000145771498118944567150000008760092648923397512_);}
	.st16{clip-path:url(#SVGID_00000121978445075690938190000004436061052905158573_);}
	.st17{clip-path:url(#SVGID_00000164495840323488368500000011911039516441726909_);}
	
		.st18{clip-path:url(#SVGID_00000073712924324445254270000002220883510136589717_);fill:url(#SVGID_00000034066887089770633010000012396297601686127542_);}
	
		.st19{clip-path:url(#SVGID_00000039827138606995210870000014924264228282407321_);mask:url(#SVGID_00000169534856295176239320000007774133441774257305_);}
	.st20{clip-path:url(#SVGID_00000069380146671118293340000017434716157747944107_);}
	.st21{fill:#1183C5;}
	.st22{clip-path:url(#SVGID_00000042697249972111854030000009663923434511240887_);}
	.st23{clip-path:url(#SVGID_00000173866831966821213730000004561320765735974315_);}
	.st24{clip-path:url(#SVGID_00000149357569996499524750000002261397788035405989_);}
	.st25{clip-path:url(#SVGID_00000036219453119108901930000009975269825380118930_);fill:#252B57;}
	.st26{clip-path:url(#SVGID_00000067236587968894086240000016433344626867832205_);fill:#252B57;}
	.st27{clip-path:url(#SVGID_00000049195680457039098610000016074195840160958126_);fill:#252B57;}
	.st28{clip-path:url(#SVGID_00000022555141793689797730000004597565868302017968_);fill:#252B57;}
	.st29{clip-path:url(#SVGID_00000117661130242213945620000010392007119426070172_);fill:#252B57;}
	.st30{clip-path:url(#SVGID_00000026160799609271381970000006311564580091709110_);fill:#252B57;}
	.st31{clip-path:url(#SVGID_00000156570507684919422840000016160314188388506037_);fill:#252B57;}
	.st32{clip-path:url(#SVGID_00000173865439283946430460000007462821472212478348_);fill:#252B57;}
	.st33{clip-path:url(#SVGID_00000065056725660949588450000011007582496816048015_);fill:#252B57;}
</style>
<g id="Arte_1_00000029040070817376374310000003233292174050000779_">
	<g>
		<g>
			<g>
				<defs>
					<rect id="SVGID_1_" x="0.5" y="0.56" width="199" height="40.88"/>
				</defs>
				<clipPath id="SVGID_00000044885621326986957840000001824435686361192356_">
					<use xlink:href="#SVGID_1_"  style="overflow:visible;"/>
				</clipPath>
				<g style="clip-path:url(#SVGID_00000044885621326986957840000001824435686361192356_);">
					<g>
						<g>
							<defs>
								<rect id="SVGID_00000020380542106309099960000004967353554559582352_" x="0.5" y="0.56" width="199" height="40.88"/>
							</defs>
							<clipPath id="SVGID_00000145057226351832259260000000238694140329255359_">
								<use xlink:href="#SVGID_00000020380542106309099960000004967353554559582352_"  style="overflow:visible;"/>
							</clipPath>
							<g style="clip-path:url(#SVGID_00000145057226351832259260000000238694140329255359_);">
								<g>
									<g>
										<defs>
											<rect id="SVGID_00000055693128047058933020000013381961473055307392_" x="0.5" y="0.56" width="199" height="40.88"/>
										</defs>
										<clipPath id="SVGID_00000078727413192943422510000018359640052321961601_">
											<use xlink:href="#SVGID_00000055693128047058933020000013381961473055307392_"  style="overflow:visible;"/>
										</clipPath>
										
											<linearGradient id="SVGID_00000057114741259637179650000017689402386798762627_" gradientUnits="userSpaceOnUse" x1="26.7318" y1="32.8482" x2="3.4533" y2="9.5697">
											<stop  offset="0" style="stop-color:#211B3E"/>
											<stop  offset="1" style="stop-color:#27348B"/>
										</linearGradient>
										
											<path style="clip-path:url(#SVGID_00000078727413192943422510000018359640052321961601_);fill:url(#SVGID_00000057114741259637179650000017689402386798762627_);" d="
											M8.7,22.06c-0.17-3.53,1.19-7.16,3.63-9.72c1.86-1.96,4.21-3.16,6.86-3.53c0.95-0.13,1.8,0.61,1.8,1.57v2.98
											c2.59,0.02,5.1,1.36,6.51,3.74c0.68,1.14,1.02,2.39,1.06,3.63c0.01-0.2,0-0.41,0-0.61c-0.16-3.46-2.35-8.15-6.33-13.57
											c-1.69-2.3-3.38-4.29-4.67-5.72c-2.41,0.4-4.79,1.25-7.03,2.57c-9.71,5.76-12.92,18.29-7.18,28
											c3.33,5.63,8.95,9.08,14.97,9.86c-0.64-0.78-1.31-1.63-1.99-2.55C11.48,32.24,8.91,26.64,8.7,22.06"/>
									</g>
								</g>
								<g>
									<g>
										<defs>
											<rect id="SVGID_00000027569714192515601440000002622879351028945854_" x="0.5" y="0.56" width="199" height="40.88"/>
										</defs>
										<clipPath id="SVGID_00000028306257236350151360000000958530055754617476_">
											<use xlink:href="#SVGID_00000027569714192515601440000002622879351028945854_"  style="overflow:visible;"/>
										</clipPath>
										
											<linearGradient id="SVGID_00000050624311984290453170000001391129990545829509_" gradientUnits="userSpaceOnUse" x1="38.4533" y1="32.4216" x2="15.2108" y2="9.1791">
											<stop  offset="0" style="stop-color:#211B3E"/>
											<stop  offset="1" style="stop-color:#27348B"/>
										</linearGradient>
										
											<path style="clip-path:url(#SVGID_00000028306257236350151360000000958530055754617476_);fill:url(#SVGID_00000050624311984290453170000001391129990545829509_);" d="
											M38.53,10.6c-3.32-5.61-8.9-9.05-14.89-9.85c0.63,0.77,1.29,1.62,1.97,2.51c4.85,6.48,7.42,12.08,7.63,16.66
											c0.17,3.53-1.19,7.16-3.63,9.72c-1.86,1.96-4.21,3.16-6.86,3.53c-0.95,0.13-1.8-0.61-1.8-1.57v-2.95
											c-2.6,0-5.14-1.34-6.56-3.74c-0.52-0.89-0.85-1.84-0.99-2.8c0.25,3.43,2.43,8.03,6.32,13.33c1.69,2.31,3.39,4.3,4.68,5.74
											c2.39-0.41,4.75-1.25,6.96-2.56C41.06,32.84,44.27,20.31,38.53,10.6"/>
									</g>
								</g>
								<g>
									<g>
										<defs>
											<rect id="SVGID_00000007410057895121586070000011663468716402557829_" x="0.5" y="0.56" width="199" height="40.88"/>
										</defs>
										<clipPath id="SVGID_00000068642950904045448790000000423438335031958676_">
											<use xlink:href="#SVGID_00000007410057895121586070000011663468716402557829_"  style="overflow:visible;"/>
										</clipPath>
										<path style="clip-path:url(#SVGID_00000068642950904045448790000000423438335031958676_);fill:#1183C5;" d="M28.56,20.75
											c-0.04-1.24-0.38-2.49-1.06-3.63c-1.41-2.39-3.93-3.72-6.51-3.74c-0.55,0-1.11,0.05-1.66,0.17
											c-0.38,0.08-0.76,0.2-1.13,0.34c-0.39,0.15-0.78,0.33-1.15,0.56c-2.74,1.62-4.09,4.68-3.67,7.65
											c0.14,0.96,0.46,1.91,0.99,2.8c1.42,2.41,3.96,3.74,6.56,3.74c1.32,0,2.66-0.34,3.89-1.06
											C27.3,26.1,28.65,23.44,28.56,20.75 M18.27,22.58c-0.87-1.47-0.38-3.37,1.09-4.24c1.47-0.87,3.37-0.38,4.24,1.09
											s0.38,3.37-1.09,4.24S19.14,24.05,18.27,22.58"/>
									</g>
								</g>
								<g>
									<g>
										<defs>
											<rect id="SVGID_00000176728143054347371230000001353532773099997848_" x="0.5" y="0.56" width="199" height="40.88"/>
										</defs>
										<clipPath id="SVGID_00000119833297235398928860000002520070129895603645_">
											<use xlink:href="#SVGID_00000176728143054347371230000001353532773099997848_"  style="overflow:visible;"/>
										</clipPath>
										<path style="clip-path:url(#SVGID_00000119833297235398928860000002520070129895603645_);fill:#FFFFFF;" d="M23.6,19.42
											c-0.87-1.47-2.77-1.96-4.24-1.09s-1.96,2.77-1.09,4.24c0.87,1.47,2.77,1.96,4.24,1.09C23.99,22.79,24.47,20.9,23.6,19.42"
											/>
									</g>
								</g>
								<g>
									<g>
										<defs>
											<rect id="SVGID_00000078042414550690310770000000756235763292590468_" x="0.5" y="0.56" width="199" height="40.88"/>
										</defs>
										<clipPath id="SVGID_00000018921706392064225720000008974892809734791578_">
											<use xlink:href="#SVGID_00000078042414550690310770000000756235763292590468_"  style="overflow:visible;"/>
										</clipPath>
										<path style="clip-path:url(#SVGID_00000018921706392064225720000008974892809734791578_);fill:#FFFFFF;" d="M28.56,20.13
											c0.01,0.2,0.01,0.41,0,0.61c0.09,2.69-1.26,5.35-3.74,6.82c-1.22,0.72-2.56,1.06-3.88,1.06v2.95
											c0,0.96,0.85,1.71,1.8,1.57c2.65-0.37,5-1.57,6.86-3.53c2.44-2.55,3.79-6.19,3.63-9.72c-0.22-4.58-2.78-10.18-7.63-16.66
											c-0.67-0.9-1.34-1.74-1.96-2.51l0,0c-0.88-0.12-1.78-0.18-2.69-0.18c-1.15,0-2.28,0.1-3.37,0.28
											c1.29,1.43,2.98,3.42,4.67,5.72C26.21,11.99,28.4,16.68,28.56,20.13"/>
									</g>
								</g>
								<g>
									<g>
										<defs>
											<rect id="SVGID_00000005261039693948794610000004355260502655137668_" x="0.5" y="0.56" width="199" height="40.88"/>
										</defs>
										<clipPath id="SVGID_00000041995225521552431820000012111891648388756149_">
											<use xlink:href="#SVGID_00000005261039693948794610000004355260502655137668_"  style="overflow:visible;"/>
										</clipPath>
										<path style="clip-path:url(#SVGID_00000041995225521552431820000012111891648388756149_);fill:#FFFFFF;" d="M13.39,22.08
											c-0.42-2.97,0.93-6.03,3.67-7.65c0.37-0.22,0.76-0.41,1.15-0.56c0.36-0.14,0.74-0.26,1.13-0.34
											c0.55-0.12,1.11-0.17,1.66-0.17v-2.98c0-0.96-0.85-1.71-1.8-1.57c-2.65,0.37-5,1.57-6.86,3.52
											c-2.44,2.56-3.8,6.19-3.63,9.72c0.22,4.58,2.78,10.18,7.63,16.66c0.68,0.91,1.35,1.76,1.99,2.55l0,0
											c0.86,0.11,1.73,0.16,2.61,0.16c1.17,0,2.32-0.1,3.44-0.29c-1.29-1.43-2.98-3.43-4.68-5.73
											C15.81,30.12,13.64,25.51,13.39,22.08"/>
									</g>
								</g>
								<g>
									<g>
										<defs>
											<rect id="SVGID_00000041280020032203534950000017671859831777454513_" x="0.5" y="0.56" width="199" height="40.88"/>
										</defs>
										<clipPath id="SVGID_00000015319712821607503270000012336718653754226619_">
											<use xlink:href="#SVGID_00000041280020032203534950000017671859831777454513_"  style="overflow:visible;"/>
										</clipPath>
										<g style="clip-path:url(#SVGID_00000015319712821607503270000012336718653754226619_);">
											<g>
												<g>
													<g>
														<defs>
															
																<rect id="SVGID_00000129193169933552492140000015946298285679888044_" x="-25.73" y="-25.67" width="93.34" height="93.34"/>
														</defs>
														<clipPath id="SVGID_00000132784433566421728490000003412290048966172322_">
															<use xlink:href="#SVGID_00000129193169933552492140000015946298285679888044_"  style="overflow:visible;"/>
														</clipPath>
														<g style="clip-path:url(#SVGID_00000132784433566421728490000003412290048966172322_);">
															<g>
																<g>
																	<defs>
																		<path id="SVGID_00000134949337672663547780000018095577701196109981_" d="M20.77,0.56
																			c-3.49,0.03-7.01,0.95-10.23,2.85C0.82,9.16-2.39,21.69,3.35,31.4c3.81,6.44,10.6,10.02,17.57,10.03H21
																			c3.52-0.01,7.09-0.93,10.35-2.85c6.39-3.78,9.97-10.49,10.03-17.41v-0.39c-0.03-3.47-0.95-6.98-2.85-10.19
																			c-3.79-6.4-10.52-9.98-17.45-10.03C21.08,0.56,20.77,0.56,20.77,0.56z"/>
																	</defs>
																	<clipPath id="SVGID_00000011744097164036546060000005323006744690901428_">
																		<use xlink:href="#SVGID_00000134949337672663547780000018095577701196109981_"  style="overflow:visible;"/>
																	</clipPath>
																	<defs>
																		
																			<filter id="Adobe_OpacityMaskFilter" filterUnits="userSpaceOnUse" x="-25.73" y="-25.67" width="93.34" height="93.34">
																			<feColorMatrix  type="matrix" values="1 0 0 0 0  0 1 0 0 0  0 0 1 0 0  0 0 0 1 0"/>
																		</filter>
																	</defs>
																	
																		<mask maskUnits="userSpaceOnUse" x="-25.73" y="-25.67" width="93.34" height="93.34" id="SVGID_00000169534856295176239320000007774133441774257305_">
																		<g class="st10">
																			<g>
																				<g>
																					<defs>
																						<path id="SVGID_00000017483856100406442080000017967983203848238511_" d="M20.77,0.56
																							c-3.49,0.03-7.01,0.95-10.23,2.85C0.82,9.16-2.39,21.69,3.35,31.4c3.81,6.44,10.6,10.02,17.57,10.03H21
																							c3.52-0.01,7.09-0.93,10.35-2.85c6.39-3.78,9.97-10.49,10.03-17.41v-0.39c-0.03-3.47-0.95-6.98-2.85-10.19
																							c-3.79-6.4-10.52-9.98-17.45-10.03C21.08,0.56,20.77,0.56,20.77,0.56z"/>
																					</defs>
																					
																						<clipPath id="SVGID_00000067937119805712234560000016025055173932811426_" style="clip-path:url(#SVGID_00000011744097164036546060000005323006744690901428_);">
																						<use xlink:href="#SVGID_00000017483856100406442080000017967983203848238511_"  style="overflow:visible;"/>
																					</clipPath>
																				</g>
																				<g>
																					<defs>
																						<path id="SVGID_00000143591288307702570980000000835338839489876148_" d="M20.77,0.56
																							c-3.49,0.03-7.01,0.95-10.23,2.85C0.82,9.16-2.39,21.69,3.35,31.4c3.81,6.44,10.6,10.02,17.57,10.03H21
																							c3.52-0.01,7.09-0.93,10.35-2.85c6.39-3.78,9.97-10.49,10.03-17.41v-0.39c-0.03-3.47-0.95-6.98-2.85-10.19
																							c-3.79-6.4-10.52-9.98-17.45-10.03C21.08,0.56,20.77,0.56,20.77,0.56z"/>
																					</defs>
																					<defs>
																						<path id="SVGID_00000089553838589091759610000001047813331021257099_" d="M20.77,0.56
																							c-3.49,0.03-7.01,0.95-10.23,2.85C0.82,9.16-2.39,21.69,3.35,31.4c3.81,6.44,10.6,10.02,17.57,10.03H21
																							c3.52-0.01,7.09-0.93,10.35-2.85c6.39-3.78,9.97-10.49,10.03-17.41v-0.39c-0.03-3.47-0.95-6.98-2.85-10.19
																							c-3.79-6.4-10.52-9.98-17.45-10.03C21.08,0.56,20.77,0.56,20.77,0.56z"/>
																					</defs>
																					
																						<clipPath id="SVGID_00000012442283745306796830000017557401123344501146_" style="clip-path:url(#SVGID_00000011744097164036546060000005323006744690901428_);">
																						<use xlink:href="#SVGID_00000143591288307702570980000000835338839489876148_"  style="overflow:visible;"/>
																					</clipPath>
																					
																						<clipPath id="SVGID_00000070102680654873580400000004138225669191445936_" style="clip-path:url(#SVGID_00000012442283745306796830000017557401123344501146_);">
																						<use xlink:href="#SVGID_00000089553838589091759610000001047813331021257099_"  style="overflow:visible;"/>
																					</clipPath>
																					
																						<rect x="-25.73" y="-25.67" style="clip-path:url(#SVGID_00000070102680654873580400000004138225669191445936_);" width="93.34" height="93.34"/>
																				</g>
																			</g>
																			<g class="st14">
																				<g>
																					<g>
																						<g>
																							<defs>
																								<path id="SVGID_00000098927887956469057120000005800391613491082167_" d="M20.77,0.56
																									c-3.49,0.03-7.01,0.95-10.23,2.85C0.82,9.16-2.39,21.69,3.35,31.4c3.81,6.44,10.6,10.02,17.57,10.03H21
																									c3.52-0.01,7.09-0.93,10.35-2.85c6.39-3.78,9.97-10.49,10.03-17.41v-0.39c-0.03-3.47-0.95-6.98-2.85-10.19
																									c-3.79-6.4-10.52-9.98-17.45-10.03C21.08,0.56,20.77,0.56,20.77,0.56z"/>
																							</defs>
																							
																								<clipPath id="SVGID_00000183948053178910586750000006487482548715078557_" style="clip-path:url(#SVGID_00000011744097164036546060000005323006744690901428_);">
																								
																									<use xlink:href="#SVGID_00000098927887956469057120000005800391613491082167_"  style="overflow:visible;"/>
																							</clipPath>
																						</g>
																					</g>
																					<g>
																						<g>
																							<defs>
																								<path id="SVGID_00000092456423426823610880000012910521588377345168_" d="M20.77,0.56
																									c-3.49,0.03-7.01,0.95-10.23,2.85C0.82,9.16-2.39,21.69,3.35,31.4c3.81,6.44,10.6,10.02,17.57,10.03H21
																									c3.52-0.01,7.09-0.93,10.35-2.85c6.39-3.78,9.97-10.49,10.03-17.41v-0.39c-0.03-3.47-0.95-6.98-2.85-10.19
																									c-3.79-6.4-10.52-9.98-17.45-10.03C21.08,0.56,20.77,0.56,20.77,0.56z"/>
																							</defs>
																							
																								<clipPath id="SVGID_00000050655416061800794550000014714870758319706527_" style="clip-path:url(#SVGID_00000011744097164036546060000005323006744690901428_);">
																								
																									<use xlink:href="#SVGID_00000092456423426823610880000012910521588377345168_"  style="overflow:visible;"/>
																							</clipPath>
																						</g>
																						<g>
																							<defs>
																								<path id="SVGID_00000085954136698244118580000018019917663647209361_" d="M20.77,0.56
																									c-3.49,0.03-7.01,0.95-10.23,2.85C0.82,9.16-2.39,21.69,3.35,31.4c3.81,6.44,10.6,10.02,17.57,10.03H21
																									c3.52-0.01,7.09-0.93,10.35-2.85c6.39-3.78,9.97-10.49,10.03-17.41v-0.39c-0.03-3.47-0.95-6.98-2.85-10.19
																									c-3.79-6.4-10.52-9.98-17.45-10.03C21.08,0.56,20.77,0.56,20.77,0.56z"/>
																							</defs>
																							<defs>
																								<path id="SVGID_00000056405135468529299760000009541640321269400733_" d="M20.77,0.56
																									c-3.49,0.03-7.01,0.95-10.23,2.85C0.82,9.16-2.39,21.69,3.35,31.4c3.81,6.44,10.6,10.02,17.57,10.03H21
																									c3.52-0.01,7.09-0.93,10.35-2.85c6.39-3.78,9.97-10.49,10.03-17.41v-0.39c-0.03-3.47-0.95-6.98-2.85-10.19
																									c-3.79-6.4-10.52-9.98-17.45-10.03C21.08,0.56,20.77,0.56,20.77,0.56z"/>
																							</defs>
																							
																								<clipPath id="SVGID_00000160156131300677855140000015157273095038331792_" style="clip-path:url(#SVGID_00000011744097164036546060000005323006744690901428_);">
																								
																									<use xlink:href="#SVGID_00000085954136698244118580000018019917663647209361_"  style="overflow:visible;"/>
																							</clipPath>
																							
																								<clipPath id="SVGID_00000059282524631307213620000014452727266874250933_" style="clip-path:url(#SVGID_00000160156131300677855140000015157273095038331792_);">
																								
																									<use xlink:href="#SVGID_00000056405135468529299760000009541640321269400733_"  style="overflow:visible;"/>
																							</clipPath>
																						</g>
																						<g>
																							<defs>
																								<path id="SVGID_00000077308033726313985950000015258670624923968156_" d="M20.77,0.56
																									c-3.49,0.03-7.01,0.95-10.23,2.85C0.82,9.16-2.39,21.69,3.35,31.4c3.81,6.44,10.6,10.02,17.57,10.03H21
																									c3.52-0.01,7.09-0.93,10.35-2.85c6.39-3.78,9.97-10.49,10.03-17.41v-0.39c-0.03-3.47-0.95-6.98-2.85-10.19
																									c-3.79-6.4-10.52-9.98-17.45-10.03C21.08,0.56,20.77,0.56,20.77,0.56z"/>
																							</defs>
																							<defs>
																								<path id="SVGID_00000105418126364255342580000017465945499244095416_" d="M20.77,0.56
																									c-3.49,0.03-7.01,0.95-10.23,2.85C0.82,9.16-2.39,21.69,3.35,31.4c3.81,6.44,10.6,10.02,17.57,10.03H21
																									c3.52-0.01,7.09-0.93,10.35-2.85c6.39-3.78,9.97-10.49,10.03-17.41v-0.39c-0.03-3.47-0.95-6.98-2.85-10.19
																									c-3.79-6.4-10.52-9.98-17.45-10.03C21.08,0.56,20.77,0.56,20.77,0.56z"/>
																							</defs>
																							<defs>
																								
																									<rect id="SVGID_00000149367487241203361900000002360322770346743180_" x="-12.06" y="-12" transform="matrix(0.7071 -0.7071 0.7071 0.7071 -8.7152 20.9572)" width="66" height="66"/>
																							</defs>
																							
																								<clipPath id="SVGID_00000157996522562584914060000013675842136663767724_" style="clip-path:url(#SVGID_00000011744097164036546060000005323006744690901428_);">
																								
																									<use xlink:href="#SVGID_00000077308033726313985950000015258670624923968156_"  style="overflow:visible;"/>
																							</clipPath>
																							
																								<clipPath id="SVGID_00000029046606192930532260000011797659993716353968_" style="clip-path:url(#SVGID_00000157996522562584914060000013675842136663767724_);">
																								
																									<use xlink:href="#SVGID_00000105418126364255342580000017465945499244095416_"  style="overflow:visible;"/>
																							</clipPath>
																							
																								<clipPath id="SVGID_00000116957375592713588320000010108494957449444242_" style="clip-path:url(#SVGID_00000029046606192930532260000011797659993716353968_);">
																								
																									<use xlink:href="#SVGID_00000149367487241203361900000002360322770346743180_"  style="overflow:visible;"/>
																							</clipPath>
																							
																								<linearGradient id="SVGID_00000024694205735841436040000010839233763371003534_" gradientUnits="userSpaceOnUse" x1="-1580.3625" y1="-502.1089" x2="-1579.8065" y2="-502.1089" gradientTransform="matrix(51.9815 51.9815 -51.9815 51.9815 56055.7305 108256.5391)">
																								<stop  offset="0" style="stop-color:#FFFFFF"/>
																								<stop  offset="0.9949" style="stop-color:#868686"/>
																								<stop  offset="1" style="stop-color:#868686"/>
																							</linearGradient>
																							
																								<polygon style="clip-path:url(#SVGID_00000116957375592713588320000010108494957449444242_);fill:url(#SVGID_00000024694205735841436040000010839233763371003534_);" points="
																								-72.4,21 20.94,114.34 114.27,21 20.94,-72.34 																							"/>
																						</g>
																					</g>
																				</g>
																			</g>
																		</g>
																	</mask>
																	
																		<g style="clip-path:url(#SVGID_00000011744097164036546060000005323006744690901428_);mask:url(#SVGID_00000169534856295176239320000007774133441774257305_);">
																		<g>
																			<g>
																				<g>
																					<defs>
																						
																							<rect id="SVGID_00000135662021399037647020000006030990902877835175_" x="-25.73" y="-25.67" width="93.34" height="93.34"/>
																					</defs>
																					<clipPath id="SVGID_00000153670789579158466810000011389506730079681192_">
																						<use xlink:href="#SVGID_00000135662021399037647020000006030990902877835175_"  style="overflow:visible;"/>
																					</clipPath>
																				</g>
																			</g>
																		</g>
																	</g>
																</g>
															</g>
														</g>
													</g>
												</g>
											</g>
										</g>
									</g>
								</g>
							</g>
						</g>
					</g>
					<g>
						<g>
							<defs>
								<rect id="SVGID_00000170973242284553999380000006574780859679271814_" x="0.5" y="0.56" width="199" height="40.88"/>
							</defs>
							<clipPath id="SVGID_00000023965129466266999870000006753772827006272690_">
								<use xlink:href="#SVGID_00000170973242284553999380000006574780859679271814_"  style="overflow:visible;"/>
							</clipPath>
							<g style="clip-path:url(#SVGID_00000023965129466266999870000006753772827006272690_);">
								<g class="st14">
									<path class="st21" d="M53.08,16.1c-1.02,0-1.88-0.18-2.59-0.53c-0.71-0.36-1.25-0.87-1.62-1.53s-0.58-1.46-0.62-2.39
										c-0.01-0.45-0.02-0.93-0.02-1.45c0-0.51,0.01-1.01,0.02-1.48c0.04-0.92,0.25-1.71,0.63-2.38s0.92-1.18,1.63-1.54
										c0.71-0.36,1.56-0.53,2.57-0.53c0.74,0,1.41,0.1,2,0.3s1.09,0.47,1.51,0.81c0.42,0.35,0.74,0.75,0.97,1.21
										s0.35,0.96,0.36,1.5c0.01,0.1-0.02,0.18-0.09,0.25s-0.16,0.1-0.25,0.1h-1.56c-0.12,0-0.22-0.03-0.3-0.09
										c-0.08-0.06-0.13-0.16-0.16-0.3c-0.18-0.72-0.48-1.21-0.9-1.48c-0.43-0.26-0.96-0.39-1.59-0.39
										c-0.73,0-1.32,0.21-1.76,0.62s-0.67,1.09-0.71,2.03c-0.03,0.9-0.03,1.82,0,2.76c0.03,0.94,0.27,1.62,0.71,2.03
										s1.02,0.62,1.76,0.62c0.63,0,1.17-0.13,1.6-0.4s0.73-0.76,0.9-1.47c0.03-0.15,0.09-0.26,0.16-0.31
										c0.08-0.05,0.17-0.08,0.3-0.08h1.56c0.1,0,0.18,0.03,0.25,0.1s0.1,0.15,0.09,0.25c-0.01,0.54-0.13,1.04-0.36,1.5
										s-0.55,0.86-0.97,1.21c-0.42,0.34-0.92,0.62-1.51,0.81C54.49,16,53.83,16.1,53.08,16.1z"/>
									<path class="st21" d="M64.3,16.1c-0.97,0-1.81-0.16-2.51-0.48s-1.25-0.82-1.64-1.49s-0.61-1.51-0.64-2.52
										c-0.01-0.47-0.02-0.94-0.02-1.4s0.01-0.93,0.02-1.41c0.03-1,0.25-1.83,0.66-2.5s0.96-1.17,1.67-1.51s1.53-0.51,2.47-0.51
										s1.77,0.17,2.48,0.51c0.71,0.34,1.27,0.84,1.68,1.51c0.4,0.67,0.62,1.5,0.66,2.5c0.02,0.48,0.03,0.95,0.03,1.41
										s-0.01,0.93-0.03,1.4c-0.03,1.01-0.25,1.85-0.64,2.52s-0.94,1.17-1.65,1.49S65.27,16.1,64.3,16.1z M64.3,14.21
										c0.71,0,1.29-0.21,1.74-0.63s0.69-1.11,0.72-2.06c0.02-0.48,0.03-0.93,0.03-1.34s-0.01-0.85-0.03-1.32
										c-0.02-0.63-0.14-1.15-0.35-1.55s-0.5-0.69-0.86-0.87s-0.78-0.27-1.25-0.27c-0.46,0-0.87,0.09-1.23,0.27
										s-0.65,0.47-0.86,0.87s-0.33,0.92-0.35,1.55c-0.01,0.47-0.02,0.91-0.02,1.32s0.01,0.86,0.02,1.34
										c0.03,0.95,0.27,1.64,0.72,2.06C63.02,14,63.6,14.21,64.3,14.21z"/>
									<path class="st21" d="M71.69,15.94c-0.11,0-0.2-0.04-0.28-0.12s-0.11-0.17-0.11-0.28V4.83c0-0.11,0.04-0.2,0.11-0.28
										c0.08-0.08,0.17-0.12,0.28-0.12h1.53c0.11,0,0.2,0.04,0.28,0.12s0.11,0.17,0.11,0.28v9.15h5.21c0.12,0,0.22,0.04,0.3,0.11
										c0.08,0.08,0.11,0.18,0.11,0.3v1.15c0,0.11-0.04,0.2-0.11,0.28c-0.08,0.08-0.18,0.12-0.3,0.12
										C78.82,15.94,71.69,15.94,71.69,15.94z"/>
								</g>
							</g>
						</g>
					</g>
					<g>
						<g>
							<defs>
								<rect id="SVGID_00000108285701042600135900000008113657642575260060_" x="0.5" y="0.56" width="199" height="40.88"/>
							</defs>
							<clipPath id="SVGID_00000173134680093458489850000007397263490723774905_">
								<use xlink:href="#SVGID_00000108285701042600135900000008113657642575260060_"  style="overflow:visible;"/>
							</clipPath>
							<g style="clip-path:url(#SVGID_00000173134680093458489850000007397263490723774905_);">
								<g class="st14">
									<path class="st21" d="M81.22,15.94c-0.11,0-0.2-0.04-0.28-0.12s-0.11-0.17-0.11-0.28V4.85c0-0.12,0.04-0.22,0.11-0.3
										c0.08-0.08,0.17-0.12,0.28-0.12h7.23c0.12,0,0.22,0.04,0.3,0.12s0.12,0.17,0.12,0.3v1.08c0,0.11-0.04,0.2-0.12,0.28
										c-0.08,0.08-0.18,0.11-0.3,0.11h-5.4v2.91h5.04c0.12,0,0.22,0.04,0.3,0.11s0.12,0.17,0.12,0.29v1.02
										c0,0.12-0.04,0.22-0.12,0.29s-0.18,0.11-0.3,0.11h-5.04v3.01h5.53c0.12,0,0.22,0.04,0.3,0.12S89,14.35,89,14.47v1.08
										c0,0.11-0.04,0.2-0.12,0.28s-0.18,0.12-0.3,0.12L81.22,15.94L81.22,15.94z M83.93,3.62c-0.18,0-0.26-0.09-0.26-0.26
										c0-0.09,0.03-0.16,0.08-0.21l1.33-1.63c0.11-0.12,0.2-0.2,0.28-0.24s0.19-0.06,0.33-0.06h1.76c0.21,0,0.31,0.1,0.31,0.31
										c0,0.08-0.03,0.14-0.08,0.2l-2.04,1.68c-0.09,0.08-0.17,0.13-0.25,0.16s-0.19,0.05-0.32,0.05H83.93z"/>
								</g>
							</g>
						</g>
					</g>
					<g>
						<g>
							<defs>
								<rect id="SVGID_00000172410126174229266170000010028558905367098285_" x="0.5" y="0.56" width="199" height="40.88"/>
							</defs>
							<clipPath id="SVGID_00000044881044330866327680000015001831463490229919_">
								<use xlink:href="#SVGID_00000172410126174229266170000010028558905367098285_"  style="overflow:visible;"/>
							</clipPath>
							<g style="clip-path:url(#SVGID_00000044881044330866327680000015001831463490229919_);">
								<g class="st14">
									<path class="st21" d="M95.42,16.1c-1.01,0-1.86-0.17-2.57-0.53c-0.71-0.35-1.25-0.86-1.64-1.52s-0.6-1.45-0.63-2.37
										c-0.01-0.47-0.02-0.98-0.02-1.52s0.01-1.05,0.02-1.54c0.03-0.91,0.24-1.69,0.63-2.33c0.39-0.65,0.94-1.14,1.66-1.5
										c0.72-0.35,1.57-0.53,2.55-0.53c0.8,0,1.5,0.11,2.1,0.32s1.1,0.49,1.5,0.82s0.7,0.69,0.9,1.08
										c0.2,0.38,0.31,0.74,0.32,1.07c0.01,0.1-0.02,0.18-0.08,0.25c-0.07,0.07-0.15,0.1-0.26,0.1h-1.69
										c-0.11,0-0.19-0.02-0.25-0.07s-0.1-0.11-0.15-0.2c-0.09-0.23-0.22-0.46-0.41-0.68s-0.44-0.41-0.76-0.57
										c-0.32-0.15-0.73-0.23-1.23-0.23c-0.74,0-1.34,0.2-1.78,0.59c-0.44,0.39-0.68,1.04-0.71,1.95c-0.03,0.95-0.03,1.92,0,2.89
										c0.03,0.93,0.28,1.6,0.73,2c0.45,0.41,1.05,0.61,1.8,0.61c0.49,0,0.93-0.09,1.32-0.26s0.69-0.45,0.92-0.82
										s0.34-0.85,0.34-1.43v-0.51h-2c-0.11,0-0.2-0.04-0.28-0.12s-0.11-0.17-0.11-0.3V9.91c0-0.12,0.04-0.22,0.11-0.3
										c0.08-0.08,0.17-0.12,0.28-0.12h3.93c0.12,0,0.22,0.04,0.29,0.12s0.11,0.17,0.11,0.3v1.72c0,0.92-0.2,1.71-0.6,2.38
										s-0.97,1.18-1.71,1.54C97.3,15.92,96.43,16.1,95.42,16.1z"/>
									<path class="st21" d="M102.85,15.94c-0.11,0-0.2-0.04-0.28-0.12s-0.11-0.17-0.11-0.28V4.83c0-0.11,0.04-0.2,0.11-0.28
										c0.08-0.08,0.17-0.12,0.28-0.12h1.54c0.12,0,0.22,0.04,0.29,0.12s0.11,0.17,0.11,0.28v10.71c0,0.11-0.04,0.2-0.11,0.28
										s-0.17,0.12-0.29,0.12H102.85z"/>
									<path class="st21" d="M111.78,16.1c-0.97,0-1.81-0.16-2.51-0.48c-0.7-0.32-1.25-0.82-1.64-1.49s-0.61-1.51-0.64-2.52
										c-0.01-0.47-0.02-0.94-0.02-1.4s0.01-0.93,0.02-1.41c0.03-1,0.25-1.83,0.66-2.5c0.4-0.67,0.96-1.17,1.67-1.51
										s1.53-0.51,2.47-0.51s1.77,0.17,2.48,0.51c0.71,0.34,1.27,0.84,1.67,1.51s0.62,1.5,0.66,2.5c0.02,0.48,0.03,0.95,0.03,1.41
										s-0.01,0.93-0.03,1.4c-0.03,1.01-0.25,1.85-0.64,2.52s-0.95,1.17-1.65,1.49C113.6,15.94,112.76,16.1,111.78,16.1z
										 M111.78,14.21c0.71,0,1.29-0.21,1.74-0.63s0.69-1.11,0.72-2.06c0.02-0.48,0.03-0.93,0.03-1.34s-0.01-0.85-0.03-1.32
										c-0.02-0.63-0.14-1.15-0.35-1.55s-0.5-0.69-0.86-0.87s-0.78-0.27-1.25-0.27c-0.46,0-0.87,0.09-1.23,0.27
										s-0.65,0.47-0.86,0.87s-0.33,0.92-0.35,1.55c-0.01,0.47-0.02,0.91-0.02,1.32s0,0.86,0.02,1.34
										c0.03,0.95,0.27,1.64,0.72,2.06C110.51,14,111.08,14.21,111.78,14.21z"/>
								</g>
							</g>
						</g>
					</g>
					<g>
						<g>
							<defs>
								<rect id="SVGID_00000053531514971223928050000000021989516143577240_" x="0.5" y="0.56" width="199" height="40.88"/>
							</defs>
							<clipPath id="SVGID_00000043433279415546520050000010790176482949978786_">
								<use xlink:href="#SVGID_00000053531514971223928050000000021989516143577240_"  style="overflow:visible;"/>
							</clipPath>
							<g style="clip-path:url(#SVGID_00000043433279415546520050000010790176482949978786_);">
								<g>
									<g>
										<defs>
											<rect id="SVGID_00000003808591659737684330000015040018294665960617_" x="0.5" y="0.56" width="199" height="40.88"/>
										</defs>
										<clipPath id="SVGID_00000114067050191488499270000014066552683685236652_">
											<use xlink:href="#SVGID_00000003808591659737684330000015040018294665960617_"  style="overflow:visible;"/>
										</clipPath>
										<path style="clip-path:url(#SVGID_00000114067050191488499270000014066552683685236652_);fill:#252B57;" d="M50.68,36.35
											c-1.47-1.38-2.26-3.33-2.36-5.87c-0.02-0.53-0.03-1.39-0.03-2.58c0-1.21,0.01-2.09,0.03-2.64c0.1-2.5,0.89-4.44,2.37-5.84
											s3.56-2.09,6.24-2.09c1.73,0,3.25,0.3,4.54,0.89s2.29,1.41,3,2.44c0.71,1.04,1.09,2.2,1.13,3.49v0.06
											c0,0.16-0.06,0.29-0.19,0.39c-0.13,0.11-0.27,0.16-0.42,0.16h-2.84c-0.23,0-0.41-0.05-0.53-0.16s-0.22-0.3-0.29-0.57
											c-0.29-1.21-0.8-2.06-1.52-2.56s-1.68-0.75-2.87-0.75c-2.79,0-4.25,1.56-4.36,4.68c-0.02,0.53-0.03,1.34-0.03,2.43
											s0.01,1.92,0.03,2.49C52.7,33.44,54.15,35,56.94,35c1.17,0,2.12-0.25,2.85-0.75s1.24-1.35,1.54-2.56
											c0.08-0.27,0.18-0.46,0.29-0.57c0.12-0.11,0.29-0.16,0.53-0.16h2.84c0.18,0,0.32,0.06,0.45,0.18
											c0.12,0.12,0.18,0.26,0.16,0.44c-0.04,1.29-0.41,2.45-1.13,3.48c-0.71,1.04-1.71,1.85-3,2.45
											c-1.29,0.59-2.8,0.89-4.54,0.89C54.24,38.41,52.15,37.72,50.68,36.35"/>
									</g>
								</g>
								<g>
									<g>
										<defs>
											<rect id="SVGID_00000147901909593639009480000016910897307324113822_" x="0.5" y="0.56" width="199" height="40.88"/>
										</defs>
										<clipPath id="SVGID_00000041992139646407250610000004114435169799576251_">
											<use xlink:href="#SVGID_00000147901909593639009480000016910897307324113822_"  style="overflow:visible;"/>
										</clipPath>
										<path style="clip-path:url(#SVGID_00000041992139646407250610000004114435169799576251_);fill:#252B57;" d="M70.16,36.65
											c-1.25-1.17-1.92-2.79-2.02-4.86l-0.03-1.29l0.03-1.29c0.1-2.05,0.78-3.67,2.05-4.85c1.27-1.18,3.03-1.77,5.3-1.77
											c2.25,0,4,0.59,5.27,1.77s1.95,2.8,2.05,4.85c0.02,0.23,0.03,0.66,0.03,1.29s-0.01,1.05-0.03,1.29
											c-0.1,2.07-0.77,3.69-2.02,4.86c-1.25,1.17-3.02,1.76-5.3,1.76C73.19,38.41,71.41,37.83,70.16,36.65 M77.88,34.49
											c0.56-0.65,0.85-1.59,0.89-2.84c0.02-0.2,0.03-0.58,0.03-1.14c0-0.57-0.01-0.95-0.03-1.14c-0.04-1.25-0.34-2.2-0.91-2.85
											c-0.57-0.65-1.36-0.98-2.37-0.98c-1.03,0-1.84,0.33-2.4,0.98c-0.57,0.65-0.87,1.61-0.91,2.85l-0.03,1.14l0.03,1.14
											c0.04,1.25,0.34,2.19,0.91,2.84c0.56,0.65,1.37,0.97,2.4,0.97C76.53,35.45,77.32,35.13,77.88,34.49"/>
									</g>
								</g>
								<g>
									<g>
										<defs>
											<rect id="SVGID_00000010279605803376585110000005303064212227289272_" x="0.5" y="0.56" width="199" height="40.88"/>
										</defs>
										<clipPath id="SVGID_00000060715782523271925840000009929062650450932878_">
											<use xlink:href="#SVGID_00000010279605803376585110000005303064212227289272_"  style="overflow:visible;"/>
										</clipPath>
										<path style="clip-path:url(#SVGID_00000060715782523271925840000009929062650450932878_);fill:#252B57;" d="M86.29,37.91
											c-0.14-0.14-0.2-0.3-0.2-0.5V23.6c0-0.21,0.07-0.39,0.2-0.51c0.14-0.12,0.3-0.19,0.5-0.19h2.43
											c0.22,0,0.39,0.06,0.51,0.19c0.13,0.13,0.19,0.3,0.19,0.51v1.2c1.19-1.46,2.82-2.2,4.89-2.2c1.79,0,3.22,0.58,4.27,1.75
											c1.05,1.17,1.58,2.78,1.58,4.83v8.23c0,0.2-0.06,0.36-0.19,0.5c-0.13,0.14-0.3,0.2-0.51,0.2h-2.64
											c-0.2,0-0.36-0.07-0.5-0.2c-0.14-0.14-0.2-0.3-0.2-0.5v-8.05c0-1.13-0.28-2.02-0.84-2.65c-0.55-0.63-1.35-0.95-2.38-0.95
											c-1,0-1.8,0.32-2.4,0.97c-0.61,0.65-0.91,1.52-0.91,2.64v8.05c0,0.2-0.06,0.36-0.19,0.5c-0.13,0.14-0.3,0.2-0.51,0.2
											h-2.61C86.6,38.12,86.43,38.05,86.29,37.91"/>
									</g>
								</g>
								<g>
									<g>
										<defs>
											<rect id="SVGID_00000103944230989679777700000014316234928739334047_" x="0.5" y="0.56" width="199" height="40.88"/>
										</defs>
										<clipPath id="SVGID_00000109738573928787386910000004199727489961920433_">
											<use xlink:href="#SVGID_00000103944230989679777700000014316234928739334047_"  style="overflow:visible;"/>
										</clipPath>
										<path style="clip-path:url(#SVGID_00000109738573928787386910000004199727489961920433_);fill:#252B57;" d="M105.78,36.54
											c-1.28-1.25-1.96-3.03-2.03-5.33l-0.03-0.73c0-2.44,0.64-4.36,1.92-5.77c1.28-1.4,3.05-2.11,5.31-2.11
											c2.32,0,4.11,0.7,5.37,2.11s1.89,3.28,1.89,5.62v0.61c0,0.2-0.07,0.36-0.2,0.5c-0.14,0.14-0.31,0.2-0.53,0.2h-9.72v0.23
											c0.04,1.09,0.34,2,0.89,2.71c0.56,0.71,1.32,1.07,2.3,1.07c1.11,0,2.02-0.45,2.72-1.35c0.17-0.22,0.31-0.35,0.41-0.4
											c0.1-0.05,0.26-0.07,0.5-0.07h2.58c0.18,0,0.33,0.05,0.45,0.15c0.13,0.1,0.19,0.23,0.19,0.41c0,0.47-0.28,1.02-0.84,1.65
											s-1.35,1.19-2.38,1.65c-1.04,0.47-2.24,0.7-3.6,0.7C108.79,38.41,107.05,37.79,105.78,36.54 M114.16,29.16V29.1
											c0-1.15-0.29-2.07-0.86-2.77c-0.58-0.69-1.36-1.04-2.36-1.04c-0.99,0-1.78,0.35-2.34,1.04c-0.57,0.69-0.85,1.61-0.85,2.77
											v0.06C107.75,29.16,114.16,29.16,114.16,29.16z"/>
									</g>
								</g>
								<g>
									<g>
										<defs>
											<rect id="SVGID_00000152246593563969560680000001310298159592379821_" x="0.5" y="0.56" width="199" height="40.88"/>
										</defs>
										<clipPath id="SVGID_00000029017000093073870400000018404593512629099937_">
											<use xlink:href="#SVGID_00000152246593563969560680000001310298159592379821_"  style="overflow:visible;"/>
										</clipPath>
										<path style="clip-path:url(#SVGID_00000029017000093073870400000018404593512629099937_);fill:#252B57;" d="M122.76,36.62
											c-1.28-1.19-1.96-2.84-2.03-4.95l-0.03-1.17l0.03-1.17c0.08-2.11,0.76-3.76,2.03-4.95c1.28-1.19,2.99-1.78,5.14-1.78
											c1.54,0,2.84,0.27,3.91,0.82c1.06,0.54,1.85,1.22,2.37,2.01c0.52,0.79,0.79,1.55,0.83,2.27c0.02,0.2-0.04,0.36-0.19,0.5
											c-0.15,0.14-0.32,0.2-0.51,0.2h-2.6c-0.22,0-0.37-0.04-0.47-0.13c-0.1-0.09-0.2-0.25-0.29-0.48
											c-0.29-0.74-0.68-1.28-1.16-1.61c-0.48-0.33-1.09-0.5-1.83-0.5c-0.99,0-1.77,0.31-2.33,0.94
											c-0.56,0.62-0.85,1.58-0.89,2.87l-0.03,1.08l0.03,0.97c0.12,2.54,1.19,3.81,3.22,3.81c0.76,0,1.38-0.16,1.85-0.48
											s0.85-0.86,1.14-1.62c0.08-0.22,0.17-0.37,0.28-0.47c0.11-0.1,0.27-0.15,0.48-0.15h2.6c0.2,0,0.37,0.07,0.51,0.2
											c0.15,0.14,0.21,0.3,0.19,0.5c-0.04,0.68-0.31,1.42-0.82,2.21c-0.51,0.79-1.29,1.47-2.34,2.03
											c-1.05,0.57-2.37,0.85-3.95,0.85C125.75,38.41,124.03,37.81,122.76,36.62"/>
									</g>
								</g>
								<g>
									<g>
										<defs>
											<rect id="SVGID_00000019680030225513986510000016632350818517381508_" x="0.5" y="0.56" width="199" height="40.88"/>
										</defs>
										<clipPath id="SVGID_00000071536578810508899070000007354160997678005133_">
											<use xlink:href="#SVGID_00000019680030225513986510000016632350818517381508_"  style="overflow:visible;"/>
										</clipPath>
										<path style="clip-path:url(#SVGID_00000071536578810508899070000007354160997678005133_);fill:#252B57;" d="M140.95,36.73
											c-0.9-0.93-1.35-2.29-1.35-4.08v-6.62h-2.31c-0.2,0-0.36-0.07-0.5-0.2c-0.14-0.14-0.2-0.3-0.2-0.5V23.6
											c0-0.2,0.07-0.36,0.2-0.5c0.14-0.14,0.3-0.2,0.5-0.2h2.31v-4.86c0-0.22,0.07-0.39,0.2-0.51c0.14-0.13,0.3-0.19,0.5-0.19
											h2.43c0.22,0,0.39,0.06,0.51,0.19c0.13,0.13,0.19,0.3,0.19,0.51v4.86h3.66c0.2,0,0.36,0.07,0.5,0.2
											c0.14,0.14,0.21,0.3,0.21,0.5v1.73c0,0.2-0.07,0.36-0.21,0.5s-0.3,0.2-0.5,0.2h-3.66v6.29c0,0.84,0.15,1.47,0.44,1.9
											c0.29,0.43,0.77,0.64,1.44,0.64h2.05c0.22,0,0.39,0.06,0.51,0.19c0.13,0.13,0.19,0.3,0.19,0.51v1.84
											c0,0.2-0.06,0.36-0.19,0.5s-0.3,0.2-0.51,0.2h-2.4C143.18,38.12,141.85,37.65,140.95,36.73"/>
									</g>
								</g>
								<g>
									<g>
										<defs>
											<rect id="SVGID_00000062908093393110321100000008329004931984936346_" x="0.5" y="0.56" width="199" height="40.88"/>
										</defs>
										<clipPath id="SVGID_00000000939682927048038330000013756098577818949300_">
											<use xlink:href="#SVGID_00000062908093393110321100000008329004931984936346_"  style="overflow:visible;"/>
										</clipPath>
										<path style="clip-path:url(#SVGID_00000000939682927048038330000013756098577818949300_);fill:#252B57;" d="M152.35,37.81
											c-0.83-0.4-1.48-0.94-1.96-1.62c-0.48-0.68-0.72-1.43-0.72-2.25c0-1.33,0.54-2.4,1.61-3.22s2.55-1.38,4.42-1.67l4.01-0.58
											v-0.62c0-0.84-0.21-1.47-0.64-1.9s-1.11-0.65-2.05-0.65c-0.64,0-1.16,0.12-1.55,0.35s-0.71,0.47-0.95,0.72
											c-0.24,0.24-0.4,0.4-0.48,0.48c-0.08,0.24-0.22,0.35-0.44,0.35h-2.28c-0.18,0-0.33-0.06-0.45-0.17
											c-0.13-0.12-0.19-0.27-0.19-0.47c0.02-0.49,0.26-1.04,0.72-1.66s1.16-1.15,2.12-1.61c0.96-0.46,2.14-0.69,3.54-0.69
											c2.3,0,3.98,0.52,5.03,1.55c1.06,1.04,1.58,2.39,1.58,4.07v9.19c0,0.2-0.06,0.36-0.19,0.5s-0.3,0.2-0.51,0.2h-2.43
											c-0.2,0-0.36-0.07-0.5-0.2c-0.14-0.14-0.2-0.3-0.2-0.5v-1.14c-0.43,0.62-1.04,1.14-1.81,1.53c-0.78,0.4-1.76,0.6-2.93,0.6
											C154.09,38.41,153.18,38.21,152.35,37.81 M158.72,34.55c0.68-0.7,1.02-1.72,1.02-3.05v-0.59l-2.93,0.47
											c-2.24,0.35-3.37,1.1-3.37,2.25c0,0.63,0.26,1.11,0.78,1.45s1.14,0.51,1.86,0.51C157.16,35.6,158.04,35.25,158.72,34.55"
											/>
									</g>
								</g>
								<g>
									<g>
										<defs>
											<rect id="SVGID_00000111875451891673353920000002858641972556949432_" x="0.5" y="0.56" width="199" height="40.88"/>
										</defs>
										<clipPath id="SVGID_00000046319991002715485850000005165330980106681502_">
											<use xlink:href="#SVGID_00000111875451891673353920000002858641972556949432_"  style="overflow:visible;"/>
										</clipPath>
										<path style="clip-path:url(#SVGID_00000046319991002715485850000005165330980106681502_);fill:#252B57;" d="M168.53,36.52
											c-1.05-1.26-1.63-2.94-1.73-5.05l-0.03-0.97l0.03-0.97c0.08-2.07,0.65-3.74,1.71-5.02c1.06-1.28,2.58-1.92,4.55-1.92
											c1.87,0,3.37,0.65,4.48,1.93v-6.5c0-0.21,0.07-0.38,0.21-0.51c0.14-0.13,0.3-0.19,0.5-0.19h2.55
											c0.22,0,0.39,0.06,0.51,0.19c0.13,0.13,0.19,0.3,0.19,0.51V37.4c0,0.2-0.06,0.36-0.19,0.5s-0.3,0.2-0.51,0.2h-2.37
											c-0.2,0-0.36-0.07-0.5-0.2c-0.14-0.14-0.2-0.3-0.2-0.5v-1.08c-1.07,1.39-2.62,2.08-4.65,2.08
											C171.09,38.41,169.58,37.78,168.53,36.52 M176.65,34.18c0.54-0.71,0.84-1.6,0.89-2.65c0.02-0.23,0.03-0.6,0.03-1.11
											c0-0.53-0.01-0.91-0.03-1.14c-0.04-0.98-0.34-1.81-0.91-2.49s-1.39-1.02-2.46-1.02c-2.09,0-3.2,1.29-3.34,3.86l-0.03,0.88
											l0.03,0.88c0.14,2.58,1.25,3.86,3.34,3.86C175.29,35.25,176.11,34.89,176.65,34.18"/>
									</g>
								</g>
								<g>
									<g>
										<defs>
											<rect id="SVGID_00000060710367821046618390000005638572980375185280_" x="0.5" y="0.56" width="199" height="40.88"/>
										</defs>
										<clipPath id="SVGID_00000059290208765753222630000016727085100198026677_">
											<use xlink:href="#SVGID_00000060710367821046618390000005638572980375185280_"  style="overflow:visible;"/>
										</clipPath>
										<path style="clip-path:url(#SVGID_00000059290208765753222630000016727085100198026677_);fill:#252B57;" d="M186.82,36.65
											c-1.25-1.17-1.92-2.79-2.02-4.86l-0.03-1.29l0.03-1.29c0.1-2.05,0.78-3.67,2.05-4.85s3.03-1.77,5.3-1.77
											c2.25,0,4,0.59,5.27,1.77s1.95,2.8,2.05,4.85c0.02,0.23,0.03,0.66,0.03,1.29s-0.01,1.05-0.03,1.29
											c-0.1,2.07-0.77,3.69-2.02,4.86c-1.25,1.17-3.02,1.76-5.3,1.76C189.85,38.41,188.07,37.83,186.82,36.65 M194.54,34.49
											c0.56-0.65,0.85-1.59,0.89-2.84c0.02-0.2,0.03-0.58,0.03-1.14c0-0.57-0.01-0.95-0.03-1.14c-0.04-1.25-0.34-2.2-0.91-2.85
											s-1.36-0.98-2.37-0.98c-1.03,0-1.84,0.33-2.4,0.98c-0.57,0.65-0.87,1.61-0.91,2.85l-0.03,1.14l0.03,1.14
											c0.04,1.25,0.34,2.19,0.91,2.84c0.56,0.65,1.37,0.97,2.4,0.97C193.19,35.45,193.98,35.13,194.54,34.49"/>
									</g>
								</g>
							</g>
						</g>
					</g>
				</g>
			</g>
		</g>
	</g>
</g>
</svg>
